<?xml version="1.0" encoding="UTF-8"?>
<svg id="Layer_1" xmlns="http://www.w3.org/2000/svg" version="1.1" viewBox="0 0 263.83 206.53">
  <!-- Generator: Adobe Illustrator 29.8.1, SVG Export Plug-In . SVG Version: 2.1.1 Build 2)  -->
  <defs>
    <style>
      .st0 {
        fill: #00c950;
      }
    </style>
  </defs>
  <path class="st0" d="M263.83,119.91v24h-68.23c.73-3.89,1.11-7.9,1.11-12s-.38-8.11-1.11-12h68.23Z"/>
  <path class="st0" d="M211.73,25.67l-34.56,59.87c-3.85-3.76-8.16-7.04-12.85-9.75-4.49-2.6-9.32-4.68-14.41-6.14-.15-.05-.3-.09-.45-.13-5.58-1.57-11.47-2.41-17.55-2.41-4.63,0-9.15.49-13.5,1.41-1.52.32-3.02.7-4.5,1.13-5.08,1.46-9.91,3.54-14.4,6.14-3.33,1.92-6.47,4.13-9.39,6.6-2.25,1.9-4.37,3.95-6.34,6.14-3.03,3.36-5.72,7.04-7.99,10.98-1.56,2.68-2.93,5.49-4.08,8.4-1.61,4.01-2.82,8.22-3.6,12.58-.66,3.71-1,7.52-1,11.42,0,8.48,1.63,16.58,4.6,24H0v-48h46.33L6.67,85.01l22-38.1,46.61,26.91-26.64-46.15L83.28,7.67l30.63,53.06V0h36v68.74l34.1-59.07,13.86,8,13.86,8Z"/>
  <path class="st0" d="M253.15,78.08l-59.43,34.31c-1.43-4.53-3.34-8.84-5.68-12.88-2.37-4.09-5.17-7.9-8.33-11.36l59.44-34.32,7,12.13,7,12.12Z"/>
  <path class="st0" d="M251.15,189.21l-5,8.66-5,8.66-58.8-33.95c2.11-2.59,4.01-5.36,5.69-8.26,1.67-2.88,3.12-5.91,4.33-9.05l58.78,33.94Z"/>
</svg>